<?xml version="1.0" encoding="UTF-8"?>
<svg width="256px" height="256px" viewBox="0 0 256 256" version="1.1" xmlns="http://www.w3.org/2000/svg" xmlns:xlink="http://www.w3.org/1999/xlink">
    <title>Google Speech</title>
    <g stroke="none" stroke-width="1" fill="none" fill-rule="evenodd">
        <rect fill="#FFFFFF" x="0" y="0" width="256" height="256"></rect>
        <g transform="translate(42.000000, 42.000000)">
            <path d="M86,0 C133.438,0 172,38.562 172,86 C172,133.438 133.438,172 86,172 C38.562,172 0,133.438 0,86 C0,38.562 38.562,0 86,0 Z" fill="#4285F4"></path>
            <path d="M86,43 C62.252,43 43,62.252 43,86 C43,109.748 62.252,129 86,129 C109.748,129 129,109.748 129,86 C129,62.252 109.748,43 86,43 Z M86,51.6 C105.096,51.6 120.4,66.904 120.4,86 C120.4,105.096 105.096,120.4 86,120.4 C66.904,120.4 51.6,105.096 51.6,86 C51.6,66.904 66.904,51.6 86,51.6 Z" fill="#FFFFFF"></path>
            <rect fill="#FFFFFF" x="81.7" y="34.4" width="8.6" height="17.2"></rect>
            <rect fill="#FFFFFF" x="81.7" y="120.4" width="8.6" height="17.2"></rect>
            <rect fill="#FFFFFF" x="120.4" y="81.7" width="17.2" height="8.6"></rect>
            <rect fill="#FFFFFF" x="34.4" y="81.7" width="17.2" height="8.6"></rect>
            <rect fill="#FFFFFF" transform="translate(109.542, 62.459) rotate(-45.000000) translate(-109.542, -62.459) " x="105.242" y="53.859" width="8.6" height="17.2"></rect>
            <rect fill="#FFFFFF" transform="translate(62.458, 109.542) rotate(-45.000000) translate(-62.458, -109.542) " x="58.158" y="100.942" width="8.6" height="17.2"></rect>
            <rect fill="#FFFFFF" transform="translate(109.542, 109.541) rotate(-135.000000) translate(-109.542, -109.541) " x="105.242" y="100.941" width="8.6" height="17.2"></rect>
            <rect fill="#FFFFFF" transform="translate(62.458, 62.458) rotate(-135.000000) translate(-62.458, -62.458) " x="58.158" y="53.858" width="8.6" height="17.2"></rect>
        </g>
    </g>
</svg>